<svg width="48" height="47" fill="none" xmlns="http://www.w3.org/2000/svg"><g style="mix-blend-mode:hard-light" fill="#fff"><path d="M47.985 27.89c-1.691 21.3-40.6 18.96-43.885 0C2.851 20.68 13.48.998 24.35.052c15.188-1.321 24.064 22.453 23.636 27.836Z"/><path d="M47.968 27.625C45.203 50.539 0 52.643 0 30.43 0 16.636 13.16.998 24.05.053c15.218-1.32 24.567 22.194 23.918 27.572Z"/><path d="M42.922 29.783c-3.392 27.68-28.709 17.57-39.235.469C-.173 23.98 13.01.996 24.089.05c15.483-1.322 19.55 23.876 18.833 29.733Z"/></g><path d="M47.985 27.89c-1.691 21.3-40.6 18.96-43.885 0C2.851 20.68 13.48.998 24.35.052c15.188-1.321 24.064 22.453 23.636 27.836Z" fill="url(#a)" style="mix-blend-mode:hard-light"/><path d="M47.968 27.625C45.203 50.539 0 52.643 0 30.43 0 16.636 13.16.998 24.05.053c15.218-1.32 24.567 22.194 23.918 27.572Z" fill="url(#b)" style="mix-blend-mode:hard-light"/><path d="M42.922 29.783c-3.392 27.68-28.709 17.57-39.235.469C-.173 23.98 13.01.996 24.089.05c15.483-1.322 19.55 23.876 18.833 29.733Z" fill="url(#c)" style="mix-blend-mode:hard-light"/><defs><linearGradient id="a" x1="26" y1="0" x2="26" y2="43" gradientUnits="userSpaceOnUse"><stop offset=".292" stop-color="#945CCC"/><stop offset="1" stop-color="#5C67CC"/></linearGradient><linearGradient id="b" x1="24" y1="0" x2="24" y2="46" gradientUnits="userSpaceOnUse"><stop offset=".292" stop-color="#945CCC"/><stop offset="1" stop-color="#5C67CC"/></linearGradient><linearGradient id="c" x1="23" y1="0" x2="23" y2="47" gradientUnits="userSpaceOnUse"><stop offset=".292" stop-color="#945CCC"/><stop offset="1" stop-color="#5C67CC"/></linearGradient></defs></svg>