<svg width="300" height="320" fill="none" xmlns="http://www.w3.org/2000/svg" style="transform-origin:center;transform:rotate(-17deg)"><path d="M119.666 72.149c-6.828-11.273-9.779-18.402-13.011-31.422-3.204-12.908-3.971-20.68-3.386-34.277m20.214 48.83c-3.453-5.702-4.946-9.307-6.58-15.892-1.621-6.527-2.009-10.457-1.713-17.334m-43.453 82.029c-6.37-11.56-11.284-17.6-21.58-26.53-11.27-9.775-19.037-14.364-33.849-19.998m35.137 37.388c-3.018-5.476-5.346-8.338-10.223-12.568-5.34-4.631-9.019-6.805-16.036-9.474m87.637 3.846c-7.145 2.172-11.117 3.945-17.443 7.787-6.925 4.205-10.547 7.175-15.786 12.947m23.086-20.958c-4.448 1.352-6.92 2.456-10.86 4.847-4.31 2.618-6.565 4.467-9.827 8.06m29.728 10.127c-3.84 1.867-7.186 4.537-9.492 7.814m18.8-16.71c-2.401.647-5.377 1.839-8.554 3.385-3.178 1.546-5.634 3.223-7.715 4.708m4.81-6.466c1.884-1.135 3.941-2.108 6.19-3.264 1.866-.79 3.548-1.571 5.221-2.18" stroke="#655CCC" stroke-miterlimit="10" stroke-linecap="square"/><path d="M160.873 105.585c9.398 14.203 75.713 114.231 90.467 136.472 15.171 23.011-59.489 71.103-73.459 50.129-9.767-14.699-75.343-113.736-90.467-136.473-15.123-22.736 58.704-72.369 73.459-50.128Zm-1.493-1.314-73.528 48.771m71.239-29.063-64.677 7.235m44.228-29.111-27.999 55.732m27.648-12.29-23.055-32.931" stroke="#655CCC" stroke-miterlimit="10"/><path d="M107.679 146.674c-3.299-.046-5.754-.962-7.086-2.802-1.918-2.708-1.105-6.94 2.032-11.775 3.023-4.673 8.03-9.458 14.012-13.596 5.982-4.137 12.484-6.974 17.848-8.181 5.803-1.153 9.801-.404 11.719 2.303 1.918 2.707 1.105 6.94-2.032 11.775-3.024 4.672-8.03 9.458-14.012 13.595-5.982 4.137-12.484 6.974-17.848 8.181-1.658.33-3.202.496-4.633.5Z" stroke="#655CCC" stroke-miterlimit="10"/><path d="M116.262 137.11c-1.706.059-2.958-.535-3.543-1.401-1.121-1.462-.633-3.526.798-5.917 1.479-2.119 3.788-4.404 6.584-6.365 6.144-4.031 12.336-5.403 14.14-2.532 1.917 2.707-1.562 8.034-7.544 12.173-3.803 2.723-7.574 4.035-10.435 4.042Z" stroke="#655CCC" stroke-miterlimit="10"/><path d="m117.274 162.669 78.511 120.674 28.18-12.552-82.499-121.559-24.192 13.437Z" stroke="#655CCC" stroke-miterlimit="10" stroke-linecap="round" stroke-linejoin="round"/><path d="M155.003 104.158c-5.107-3.257-12.742-2.178-18.217-.104-.664.273-.476 1.373.349 1.21 5.247-1.745 12.56-3.044 17.345-.008.483.331 1.167-.657.523-1.098Z" fill="#fff"/><path d="m141.235 149.485 82.488 121.561 17.653-20.089-81.577-119.966-18.564 18.494Zm-23.842 12.913-24.088 1.43s55.297 83.193 80.297 121.261c6.194-.4 22.364-1.939 22.364-1.939l-78.573-120.752Z" stroke="#655CCC" stroke-miterlimit="10" stroke-linecap="round" stroke-linejoin="round"/><path d="m241.176 251.169-81.569-120.065 7.845-14.945 76.62 115.655-2.896 19.355Z" stroke="#655CCC" stroke-miterlimit="10" stroke-linecap="round" stroke-linejoin="round"/><path d="M134.49 146.158c20.346-13.394 31.906-31.603 25.82-40.671-6.086-9.067-27.514-5.56-47.86 7.835-20.346 13.394-31.906 31.603-25.82 40.67 6.087 9.068 27.514 5.56 47.86-7.834Z" stroke="#655CCC" stroke-miterlimit="10"/><path d="M212.807 196.023c1.661-.616 8.641-2.623 8.036-6.99-.237-1.708.083-1.688-1.624-4.489a904.34 904.34 0 0 0-2.419-3.902c-2.936-4.698-3.627-5.54-4.977-6.351-2.371-1.425-4.506-1.9-5.123-1.948-3.985-.619-6.768.837-8.002 1.548-.901-1.187-1.677-2.361-2.578-3.547 1.661-.616 4.983-1.848 9.395-1.134.665.238 3.369.572 6.262 2.471 2.419 1.615 4.552 5.317 8.961 12.485.289.455.783 1.635.977 2.841.029.176.051.353.065.528.063.795.043 1.255-.097 2.04-.752 4.218-3.846 4.79-8.876 6.448Z" fill="#EFEEFF"/><path d="M205.515 169.21c-4.412-.714-7.734.518-9.395 1.134.191-1.661.43-4.745.43-4.745 4.603-.946 11.328-1.571 15.786 2.559.522.475 2.293 2.676 4.138 5.377 3.176 4.652 4.276 7.445 5.212 11.201.059.237.425 1.873.029 2.271-.194-1.206-.688-2.386-.977-2.841-4.409-7.168-6.542-10.87-8.961-12.485-2.893-1.899-5.597-2.233-6.262-2.471Z" fill="#EFEEFF"/><path d="M217.415 187.011c-1.71 2.846-6.124 4.551-7.263 4.835.048-1.423.239-3.084.287-4.507 3.607-.9 5.04-1.05 6.671-2.437.389-.331.959-1.331.808-1.991.408 1.312.202 2.926-.503 4.1Z" fill="#EFEEFF"/><path d="M220.843 189.033c.605 4.367-6.375 6.374-8.036 6.99-.948-1.376-1.707-2.8-2.655-4.177 1.139-.284 5.553-1.989 7.263-4.835.705-1.174.911-2.788.503-4.1-.242-.781-.651-1.521-1.118-2.269a904.34 904.34 0 0 1 2.419 3.902c1.707 2.801 1.387 2.781 1.624 4.489Z" fill="#EFEEFF"/><path d="M212.807 196.023c1.661-.616 8.641-2.623 8.036-6.99-.237-1.708.083-1.688-1.624-4.489a904.34 904.34 0 0 0-2.419-3.902m-3.993 15.381c5.03-1.658 8.124-2.23 8.876-6.448.14-.785.16-1.245.097-2.04a6.392 6.392 0 0 0-.065-.528m-8.908 9.016c-.948-1.376-1.707-2.8-2.655-4.177m-14.032-21.502c.901 1.186 1.677 2.36 2.578 3.547 1.234-.711 4.017-2.167 8.002-1.548.617.048 2.752.523 5.123 1.948 1.35.811 2.041 1.653 4.977 6.351m-20.68-10.298c1.661-.616 4.983-1.848 9.395-1.134.665.238 3.369.572 6.262 2.471 2.419 1.615 4.552 5.317 8.961 12.485.289.455.783 1.635.977 2.841m-25.595-16.663c.191-1.661.43-4.745.43-4.745 4.603-.946 11.328-1.571 15.786 2.559.522.475 2.293 2.676 4.138 5.377 3.176 4.652 4.276 7.445 5.212 11.201.059.237.425 1.873.029 2.271m-11.563 4.839c1.139-.284 5.553-1.989 7.263-4.835.705-1.174.911-2.788.503-4.1m-7.766 8.935c.048-1.423.239-3.084.287-4.507 3.607-.9 5.04-1.05 6.671-2.437.389-.331.959-1.331.808-1.991m-1.118-2.269c.467.748.876 1.488 1.118 2.269" stroke="#655CCC" stroke-miterlimit="10" stroke-linecap="round" stroke-linejoin="round"/><path d="m89.38 187.48 28.96 43.116m123.444-56.486s-8.85-13.418-17.496-18.093c-7.705-4.166-13.122-5.397-21.871-4.971M93.285 203.977l11.388 16.955m132.339-59.746c-3.556-4.52-5.897-7.253-10.869-10.143-4.517-2.627-7.654-3.216-12.791-4.172" stroke="#655CCC"/><path d="M142.883 112.517c0 10.16-18.913 15.474-18.913 15.474s.782-13.755 7.503-19.538c4.716-4.058 11.41-.666 11.41 4.064Z" fill="#655CCC" stroke="#655CCC"/><path d="M133.661 140.964c1.395-6.588-9.691-12.973-9.691-12.973s-12.299 13.178-8.128 18.443c4.478 5.652 16.325 1.584 17.819-5.47Z" fill="#655CCC"/><path d="M105.995 122.364c8.91-1.564 18.131 5.626 18.131 5.626s-12.503 9.535-21.882 5.628c-4.576-1.907-2.427-10.17 3.751-11.254Z" fill="#655CCC"/></svg>