<svg width="111" height="111" fill="none" xmlns="http://www.w3.org/2000/svg"><path d="m69.515 11.636-.338.369.002.002.336-.371Zm13.081 24.537.495-.071V36.1l-.495.073Zm3.89 14.637-.464.187.002.006.461-.193Zm6.222 14.849.462-.192v-.001l-.462.193Zm-.99 4.95.353.353-.353-.353ZM70.646 91.68l-.353-.354.353.353Zm-4.95.99.193-.462h-.002l-.19.461Zm-14.92-6.152-.195.46.005.002.19-.462Zm-14.778-3.89-.07.495h.001l.069-.495ZM12.946 71.033l-.355.352.002.001.353-.353ZM15.138 11l-.328-.377.328.377Zm82.613 63.803.353.353-.353-.353Zm-22.91 22.91-.354-.353.353.353Zm-2.405 0 .354-.353-.354.353Zm0-2.404-.353-.353.353.353Zm22.91-22.91.354.353-.353-.353Zm7.637 7.637.354.353-.354-.353Zm-22.91 22.91-.354-.354.354.354Zm-2.404 0 .353-.354-.353.354Zm0-2.404-.354-.354.354.354Zm22.91-22.91.354.353-.354-.354Zm7.637 7.636-.354-.353.354.353Zm-22.91 22.91.353.354-.353-.354Zm-2.405 0 .354-.353-.354.353Zm0-2.404-.353-.353.353.353Zm22.911-22.91.353.354-.353-.354Zm2.404 0-.354.354.354-.354Zm-6.152 19.163-.354-.354.354.354Zm6.536-11.486.353.353-.353-.353Zm1.393.994-.436-.244.436.244Zm-18.56 18.504.241.437-.242-.437Zm-.966-1.366-.353-.353.353.353ZM34.584 66.932l.2.458.01-.005-.21-.453Zm-2.475 2.333.49.098.002-.01.002-.01-.494-.078Zm2.687 3.536.173-.47-.008-.002-.007-.003-.158.475Zm6.223-1.98-.318-.387-.019.016-.017.017.354.354Zm.636-24.395-.176.468.006.002.17-.47Zm-3.536.848-.381-.323-.007.008.388.315Zm1.132 5.94-.337.37.004.003.333-.373Zm10.96-1.768-.314-.39-.002.002.316.388Zm3.535-15.132.334-.372-.004-.004-.33.376Zm-4.03-.495-.29-.407-.009.006-.008.006.307.395Zm-.07 5.586-.448.224.001.002.446-.226Zm20.647 2.404.411.284-.411-.284Zm-.637-7.707.27-.42-.005-.004-.265.424Zm-3.535 0-.257-.429-.023.013-.02.016.3.4Zm3.058-24.095c7.334 6.635 11.595 15.226 12.923 24.239l.989-.146c-1.36-9.23-5.726-18.035-13.24-24.835l-.672.742Zm12.922 24.236c.713 4.987 1.995 9.976 3.92 14.754l.928-.374c-1.893-4.697-3.156-9.608-3.858-14.521l-.99.141Zm3.923 14.76 6.223 14.85.922-.387-6.222-14.85-.923.387Zm6.222 14.848c.63 1.512.318 3.205-.882 4.404l.707.707c1.488-1.488 1.883-3.613 1.099-5.495l-.924.384Zm-.882 4.404L70.293 91.327l.707.707 21.072-21.072-.708-.707ZM70.293 91.327c-1.133 1.133-2.899 1.51-4.404.882l-.385.923c1.889.787 4.083.315 5.496-1.098l-.707-.707Zm-4.406.881-14.92-6.152-.381.925 14.92 6.152.381-.925Zm-14.915-6.15c-4.718-2.001-9.783-3.212-14.905-3.924l-.138.99c5.06.704 10.036 1.897 14.652 3.855l.39-.92Zm-14.903-3.924c-8.31-1.186-16.342-5.027-22.77-11.455l-.706.707c6.583 6.584 14.814 10.521 23.334 11.739l.142-.99ZM13.3 70.681C-3.114 54.126-2.416 27.024 15.468 11.376l-.659-.753c-18.32 16.03-19.036 43.8-2.218 60.762l.71-.704Zm2.166-59.305c15.365-13.409 38.695-13.13 53.71.629l.676-.738C54.462-2.835 30.558-3.12 14.81 10.623l.657.753Zm81.93 63.073-22.91 22.91.707.708 22.91-22.91-.707-.708Zm-22.91 22.91a1.186 1.186 0 0 1-1.697 0l-.707.708c.818.818 2.195.916 3.11 0l-.706-.707Zm-1.697 0a1.186 1.186 0 0 1 0-1.696l-.707-.707c-.818.817-.916 2.195 0 3.11l.707-.706Zm0-1.696 22.91-22.91-.707-.708-22.91 22.91.707.708Zm22.91-22.91a1.186 1.186 0 0 1 1.697 0l.707-.708c-.818-.818-2.195-.916-3.111 0l.707.707Zm1.697 0a1.186 1.186 0 0 1 0 1.696l.707.707c.916-.915.818-2.293 0-3.11l-.707.706Zm5.233 6.929-22.91 22.91.707.707 22.91-22.91-.707-.707Zm-22.91 22.91a1.185 1.185 0 0 1-1.698 0l-.707.707c.818.818 2.196.916 3.112 0l-.708-.707Zm-1.698 0a1.185 1.185 0 0 1 0-1.697l-.707-.707c-.818.818-.916 2.196 0 3.111l.707-.707Zm0-1.697 22.911-22.91-.707-.707-22.91 22.91.706.707Zm22.911-22.91a1.186 1.186 0 0 1 1.697 0l.707-.707c-.818-.818-2.196-.916-3.111 0l.707.707Zm1.697 0a1.186 1.186 0 0 1 0 1.697l.707.707c.916-.916.818-2.293 0-3.111l-.707.707Zm5.232 6.93-22.91 22.91.707.707 22.91-22.91-.707-.707Zm-22.91 22.91a1.186 1.186 0 0 1-1.697 0l-.707.707c.818.818 2.195.916 3.111 0l-.707-.707Zm-1.697 0a1.185 1.185 0 0 1 0-1.697l-.707-.707c-.818.818-.916 2.195 0 3.111l.707-.707Zm0-1.697 22.91-22.91-.707-.708-22.91 22.911.707.707Zm22.91-22.91a1.185 1.185 0 0 1 1.697 0l.707-.708c-.818-.818-2.195-.915-3.111 0l.707.708Zm1.697 0c.269.268.384.569.384.848 0 .28-.115.58-.384.849l.707.707c.439-.439.677-.987.677-1.556 0-.57-.238-1.117-.677-1.556l-.707.708Zm-6.152 18.455a47.234 47.234 0 0 1-10.52 7.928l.484.875a48.228 48.228 0 0 0 10.744-8.096l-.708-.707Zm-10.889 7.354 18.132-18.133-.707-.707-18.132 18.133.707.707Zm18.736-17.736a47.222 47.222 0 0 1-7.847 10.382l.708.707c3.67-3.67 6.221-7.4 8.011-10.6l-.872-.49Zm-.604-.397c.221-.22.433-.184.549-.102a.3.3 0 0 1 .122.18c.015.068.014.174-.067.319l.872.488c.393-.702.18-1.428-.349-1.803-.52-.369-1.274-.348-1.834.211l.707.707ZM91.19 109.601c-.146.081-.25.082-.315.068a.273.273 0 0 1-.165-.112c-.073-.103-.113-.307.11-.53l-.707-.707c-.55.55-.586 1.293-.222 1.812.371.528 1.09.728 1.782.344l-.483-.875ZM77.954 84.169c-5.2-2.795-14.74-7.804-23.612-11.824-4.435-2.009-8.715-3.777-12.21-4.897-1.746-.56-3.31-.963-4.608-1.15-1.273-.185-2.382-.177-3.15.18l.42.907c.487-.226 1.342-.278 2.587-.098 1.22.176 2.725.561 4.446 1.113 3.44 1.103 7.68 2.852 12.102 4.856 8.84 4.006 18.357 9.002 23.552 11.794l.473-.881Zm-43.57-17.695c-1.206.527-1.897 1.164-2.29 1.7a3.044 3.044 0 0 0-.382.684 2.03 2.03 0 0 0-.094.313l-.002.01v.005l.493.08.494.078v.002l-.001.002v.004l.004-.019a1.03 1.03 0 0 1 .037-.111c.04-.104.118-.265.258-.457.28-.383.826-.913 1.883-1.375l-.4-.916Zm-2.765 2.693c-.182.91.211 1.82.782 2.525.576.713 1.396 1.303 2.237 1.583l.316-.949c-.644-.214-1.31-.685-1.776-1.263-.472-.584-.68-1.196-.579-1.7l-.98-.196Zm3.004 4.103c1.531.564 3.117.128 4.323-.452 1.213-.583 2.143-1.36 2.426-1.644l-.707-.707c-.212.212-1.05.92-2.152 1.45-1.11.534-2.388.84-3.544.415l-.346.938Zm6.713-2.063c3.75-3.081 5.133-8.935 5.008-14.134-.063-2.616-.507-5.118-1.259-7.093-.74-1.944-1.826-3.505-3.26-4.024l-.34.94c1.005.364 1.951 1.561 2.666 3.44.702 1.847 1.133 4.233 1.194 6.761.122 5.09-1.252 10.55-4.644 13.337l.635.773Zm.494-25.25c-.675-.253-1.467-.266-2.189-.098-.72.168-1.428.53-1.903 1.092l.763.646c.302-.357.797-.631 1.367-.764.569-.132 1.155-.11 1.611.06l.351-.936Zm-4.1 1.002c-.736.91-.822 2.223-.568 3.415.256 1.206.883 2.42 1.752 3.21l.673-.74c-.687-.624-1.226-1.638-1.447-2.678-.224-1.052-.098-2.002.368-2.577l-.777-.63Zm1.188 6.628c1.482 1.322 3.659 1.473 5.756 1.035 2.113-.44 4.272-1.502 5.852-2.788l-.63-.776c-1.46 1.189-3.474 2.178-5.427 2.586-1.968.41-3.751.208-4.886-.803l-.665.746Zm11.607-1.752c2.657-2.14 4.278-5.42 4.887-8.467.306-1.527.362-3.018.155-4.302-.206-1.276-.68-2.4-1.487-3.124l-.668.744c.573.514.982 1.387 1.168 2.54.184 1.143.139 2.512-.148 3.946-.575 2.875-2.1 5.924-4.535 7.885l.628.778Zm3.55-15.897c-.652-.572-1.511-.906-2.338-1.004-.818-.098-1.682.028-2.312.478l.582.814c.36-.258.945-.379 1.612-.3.658.079 1.32.345 1.798.764l.659-.752Zm-4.666-.514c-.836.65-1.06 1.841-1.024 2.94.038 1.131.356 2.35.813 3.265l.894-.447c-.391-.784-.674-1.862-.707-2.852-.034-1.023.2-1.776.638-2.116l-.614-.79Zm-.21 6.207c.826 1.632 2.382 2.912 4.245 3.839 1.869.93 4.089 1.527 6.311 1.77 2.222.245 4.472.138 6.402-.359 1.922-.495 3.586-1.395 4.547-2.788l-.823-.568c-.77 1.117-2.174 1.924-3.973 2.388-1.791.461-3.917.567-6.044.334-2.126-.234-4.228-.803-5.974-1.672-1.752-.872-3.104-2.023-3.799-3.396l-.892.452Zm21.506 2.462c.856-1.247 1.206-2.975 1.094-4.544-.11-1.551-.688-3.107-1.872-3.868l-.541.841c.796.512 1.314 1.68 1.416 3.098.1 1.4-.223 2.89-.921 3.906l.824.566Zm-.784-8.415c-.682-.426-1.502-.538-2.219-.5-.712.039-1.398.23-1.838.495l.514.858c.266-.16.783-.322 1.378-.354.592-.032 1.186.068 1.635.349l.53-.848Zm-4.1.024c-.798.598-1.035 1.77-.849 3.415.19 1.683.845 4.054 2.096 7.311C69.574 52.95 74.52 63.14 83.15 78.7l.875-.485C75.399 62.663 70.48 52.523 68.002 46.069c-1.242-3.23-1.86-5.508-2.036-7.065-.18-1.595.121-2.252.455-2.502l-.6-.8Z" fill="#655CCC"/></svg>