<svg width="39" height="39" fill="none" xmlns="http://www.w3.org/2000/svg"><path d="M37.862 9.9c.632 1.982.638 4.444.638 9.6s-.006 7.618-.638 9.6a13.5 13.5 0 0 1-8.762 8.762c-1.982.632-4.444.638-9.6.638s-7.618-.006-9.6-.638A13.5 13.5 0 0 1 1.138 29.1C.506 27.118.5 24.656.5 19.5s.006-7.618.638-9.6A13.5 13.5 0 0 1 9.9 1.138C11.882.506 14.344.5 19.5.5s7.618.006 9.6.638A13.5 13.5 0 0 1 37.862 9.9Z" stroke="#fff"/><path d="M19.5 15.17a4.376 4.376 0 0 0-4.371 4.372c0 2.41 1.96 4.371 4.371 4.371 2.41 0 4.371-1.96 4.371-4.371 0-2.41-1.96-4.372-4.371-4.372Zm0 0a4.376 4.376 0 0 0-4.371 4.372c0 2.41 1.96 4.371 4.371 4.371 2.41 0 4.371-1.96 4.371-4.371 0-2.41-1.96-4.372-4.371-4.372ZM33 19.5c0-4.194 0-6.29-.685-7.944a9 9 0 0 0-4.87-4.87C25.79 6 23.692 6 19.5 6c-4.194 0-6.29 0-7.944.685a9 9 0 0 0-4.87 4.87C6 13.21 6 15.308 6 19.5c0 4.194 0 6.29.685 7.944a9 9 0 0 0 4.87 4.87C13.21 33 15.308 33 19.5 33c4.194 0 6.29 0 7.944-.685a9 9 0 0 0 4.87-4.87C33 25.79 33 23.692 33 19.5Zm-13.5 5.662a5.629 5.629 0 0 1-5.62-5.62 5.629 5.629 0 0 1 5.62-5.62 5.629 5.629 0 0 1 5.62 5.62 5.629 5.629 0 0 1-5.62 5.62Zm6.87-11.24a1.253 1.253 0 0 1-1.25-1.25c0-.687.562-1.249 1.25-1.249.686 0 1.248.562 1.248 1.25 0 .686-.562 1.248-1.249 1.248ZM19.5 15.17a4.376 4.376 0 0 0-4.371 4.372c0 2.41 1.96 4.371 4.371 4.371 2.41 0 4.371-1.96 4.371-4.371 0-2.41-1.96-4.372-4.371-4.372Zm0 0a4.376 4.376 0 0 0-4.371 4.372c0 2.41 1.96 4.371 4.371 4.371 2.41 0 4.371-1.96 4.371-4.371 0-2.41-1.96-4.372-4.371-4.372Zm0 0a4.376 4.376 0 0 0-4.371 4.372c0 2.41 1.96 4.371 4.371 4.371 2.41 0 4.371-1.96 4.371-4.371 0-2.41-1.96-4.372-4.371-4.372Z" fill="#fff"/></svg>