<svg width="39" height="39" fill="none" xmlns="http://www.w3.org/2000/svg"><path d="m3.244 29.117.055-.202-.104-.18a18.796 18.796 0 0 1-2.522-9.412C.673 8.953 9.163.5 19.592.5a18.85 18.85 0 0 1 13.38 5.522A18.619 18.619 0 0 1 38.5 19.343v.001c0 10.37-8.49 18.823-18.92 18.823h-.01c-3.164 0-6.275-.795-9.04-2.29l-.173-.094-.191.05-9.454 2.465 2.532-9.18Z" stroke="#fff"/><path d="M28.02 23.117c-.468-.23-2.765-1.313-3.191-1.463-.426-.15-.738-.231-1.05.23-.311.451-1.205 1.463-1.475 1.764-.27.3-.54.34-1.008.11-.468-.23-1.975-.701-3.762-2.235-1.392-1.192-2.328-2.676-2.598-3.127-.27-.45-.031-.691.208-.922.208-.2.467-.53.696-.791.229-.261.312-.451.468-.752.156-.3.073-.561-.042-.792-.114-.23-1.05-2.445-1.444-3.347-.385-.882-.77-.762-1.05-.772-.27-.01-.582-.02-.893-.02-.312 0-.822.11-1.247.561-.427.451-1.632 1.544-1.632 3.759 0 2.214 1.673 4.36 1.912 4.66.229.3 3.294 4.85 7.991 6.805 1.112.46 1.985.741 2.66.952 1.123.34 2.141.29 2.941.18.894-.13 2.764-1.092 3.16-2.144.384-1.053.384-1.955.27-2.145-.136-.17-.447-.28-.915-.511Z" fill="#fff"/></svg>