<svg width="48" height="48" fill="none" xmlns="http://www.w3.org/2000/svg"><path d="M47.985 28.89c-1.691 21.3-40.6 18.96-43.885 0-1.249-7.21 9.38-26.892 20.25-27.838 15.187-1.32 24.063 22.454 23.635 27.837Z" fill="url(#a)" style="mix-blend-mode:hard-light"/><path d="M47.968 28.625C45.203 51.539 0 53.643 0 31.43 0 17.636 13.16 1.998 24.05 1.053c15.218-1.32 24.567 22.194 23.918 27.572Z" fill="url(#b)" style="mix-blend-mode:hard-light"/><path d="M42.922 30.783c-3.392 27.68-28.709 17.57-39.235.469C-.173 24.98 13.01 1.996 24.089 1.05 39.572-.272 43.64 24.926 42.922 30.783Z" fill="url(#c)" style="mix-blend-mode:hard-light"/><defs><linearGradient id="a" x1="26" y1="1" x2="26" y2="44" gradientUnits="userSpaceOnUse"><stop offset=".292" stop-color="#945CCC"/><stop offset="1" stop-color="#5C67CC"/></linearGradient><linearGradient id="b" x1="24" y1="1" x2="24" y2="47" gradientUnits="userSpaceOnUse"><stop offset=".292" stop-color="#945CCC"/><stop offset="1" stop-color="#5C67CC"/></linearGradient><linearGradient id="c" x1="23" y1="1" x2="23" y2="48" gradientUnits="userSpaceOnUse"><stop offset=".292" stop-color="#945CCC"/><stop offset="1" stop-color="#5C67CC"/></linearGradient></defs></svg>