<svg width="1920" height="1026" fill="none" xmlns="http://www.w3.org/2000/svg"><path d="M883.72 156.065c351.56 13.787 613.87-291.549 897.09-82.897 278.73 205.335 754.13 658.731 475.68 864.423-145.84 107.729-218.49 44.107-399 61.345-132.12 12.614-196.42-38.419-303.56-32.325-105.09 5.979-253 69.319-385.95 58.049-149.07-12.64-211.464-53.577-378.661-58.049-191.987-5.134-176.17 69.529-355.187 0-66.926-25.994-155.74 54.319-236.791 0-69.876-46.831-199.842 45.549-313.461 0-269.399-107.988-204.685-605.669-80.323-738.598C-65.023 87.54 81.552 76.817 272.445 76.817c240.717 0 370.743 69.814 611.275 79.248Z" fill="#F8F3FF"/></svg>